<svg version="1.1" id="Layer_1" xmlns="http://www.w3.org/2000/svg" xmlns:xlink="http://www.w3.org/1999/xlink" x="0px" y="0px"
	 width="100%" viewBox="0 0 2036 690" enable-background="new 0 0 2036 690" xml:space="preserve">
<path fill="#FFFFFF" opacity="1.000000" stroke="none" 
	d="
M1610.000000,691.000000 
	C1073.333374,691.000000 537.166687,691.000000 1.000000,691.000000 
	C1.000000,461.000000 1.000000,231.000000 1.000000,1.000000 
	C679.666687,1.000000 1358.333374,1.000000 2037.000000,1.000000 
	C2037.000000,231.000000 2037.000000,461.000000 2037.000000,691.000000 
	C1894.833374,691.000000 1752.666626,691.000000 1610.000000,691.000000 
M848.500000,32.000000 
	C816.739563,32.000000 784.979065,32.000000 753.285645,32.000000 
	C753.285645,124.640640 753.285645,216.709549 753.285645,308.712402 
	C803.308838,308.712402 853.045959,308.712402 903.180786,308.712402 
	C903.180786,266.354095 903.180786,224.282013 903.180786,182.291962 
	C952.984253,182.291962 1002.388062,182.291962 1052.189453,182.291962 
	C1052.189453,224.654648 1052.189453,266.726715 1052.189453,308.703735 
	C1102.326294,308.703735 1152.063477,308.703735 1202.198242,308.703735 
	C1202.198242,266.336639 1202.198242,224.264557 1202.198242,182.295776 
	C1350.997803,182.295776 1499.398193,182.295776 1648.197266,182.295776 
	C1648.197266,224.662354 1648.197266,266.734406 1648.197266,308.699890 
	C1698.333984,308.699890 1748.071167,308.699890 1797.699951,308.699890 
	C1797.699951,216.330536 1797.699951,124.261566 1797.699951,32.238895 
	C1797.086304,32.127861 1796.771240,32.020874 1796.456055,32.020863 
	C1480.804077,32.009171 1165.151978,32.004608 848.500000,32.000000 
M776.500000,335.000000 
	C769.067444,335.000000 761.634888,335.000000 754.284668,335.000000 
	C754.284668,443.643402 754.284668,551.709900 754.284668,659.714661 
	C804.639404,659.714661 854.708923,659.714661 905.172913,659.714661 
	C905.172913,586.694336 905.172913,513.958618 905.172913,441.285095 
	C954.305481,441.285095 1003.041809,441.285095 1052.172485,441.285095 
	C1052.172485,514.305176 1052.172485,587.040955 1052.172485,659.999817 
	C1053.377808,659.999817 1054.188110,659.999878 1054.998413,659.999878 
	C1102.661743,659.999939 1150.325317,659.930847 1197.988037,660.109497 
	C1202.627441,660.126892 1203.058105,658.216919 1203.055664,654.460144 
	C1202.986328,549.300903 1203.000977,444.141632 1202.989258,338.982361 
	C1202.989136,337.714111 1202.826660,336.445831 1202.727783,335.000000 
	C1060.773315,335.000000 919.136658,335.000000 776.500000,335.000000 
M1413.000000,563.500000 
	C1413.000000,595.594910 1413.000000,627.689758 1413.000000,659.714355 
	C1541.642700,659.714355 1669.710571,659.714355 1797.712280,659.714355 
	C1797.712280,609.690979 1797.712280,559.953857 1797.712280,509.820648 
	C1719.355103,509.820648 1641.284912,509.820648 1562.820312,509.820648 
	C1562.820312,410.021118 1562.820312,310.618469 1562.820312,211.290131 
	C1512.686157,211.290131 1462.948975,211.290131 1413.000000,211.290131 
	C1413.000000,328.553436 1413.000000,445.526703 1413.000000,563.500000 
M94.651787,32.000019 
	C89.533524,31.129181 91.035110,34.934124 91.034668,37.360344 
	C90.997124,242.690948 91.000000,448.021545 91.000000,653.352173 
	C91.000000,655.130981 91.000000,656.909729 91.000000,658.759583 
	C141.545074,658.759583 191.616440,658.759583 241.758118,658.759583 
	C241.758118,449.782593 241.758118,241.046112 241.758118,32.000000 
	C192.885483,32.000000 144.254074,32.000000 94.651787,32.000019 
M677.500000,32.000000 
	C543.075989,32.000000 408.651978,32.000000 274.280914,32.000000 
	C274.280914,153.966248 274.280914,275.367554 274.280914,396.717102 
	C324.299408,396.717102 374.036469,396.717102 424.169525,396.717102 
	C424.169525,315.698242 424.169525,234.961548 424.169525,153.830444 
	C525.635376,153.830444 626.704590,153.830444 727.714600,153.830444 
	C727.714600,113.029434 727.714600,72.625336 727.714600,32.000000 
	C711.120178,32.000000 694.810059,32.000000 677.500000,32.000000 
M722.000000,370.500000 
	C722.000000,345.737885 722.000000,320.975739 722.000000,296.289703 
	C671.686951,296.289703 621.949829,296.289703 571.816895,296.289703 
	C571.816895,377.315369 571.816895,458.052032 571.816895,539.183105 
	C472.351013,539.183105 373.281769,539.183105 274.292175,539.183105 
	C274.292175,579.984253 274.292175,620.388428 274.292175,660.710693 
	C423.651489,660.710693 572.718506,660.710693 722.000000,660.710693 
	C722.000000,564.114380 722.000000,467.807190 722.000000,370.500000 
M1378.000000,502.500000 
	C1378.000000,405.407715 1378.000000,308.315430 1378.000000,211.286865 
	C1327.692871,211.286865 1277.955688,211.286865 1228.284668,211.286865 
	C1228.284668,360.974670 1228.284668,510.375458 1228.284668,659.713135 
	C1278.307129,659.713135 1328.044312,659.713135 1378.000000,659.713135 
	C1378.000000,607.451050 1378.000000,555.475525 1378.000000,502.500000 
M1833.000000,61.500000 
	C1833.000000,260.923553 1833.000000,460.347107 1833.000000,659.715149 
	C1871.968872,659.715149 1910.373413,659.715149 1948.718140,659.715149 
	C1948.718140,450.696625 1948.718140,241.963089 1948.718140,33.284882 
	C1910.031128,33.284882 1871.626587,33.284882 1833.000000,33.284882 
	C1833.000000,42.545376 1833.000000,51.522686 1833.000000,61.500000 
z"/>
<path fill="#000000" opacity="1.000000" stroke="none" 
	d="
M849.000000,32.000000 
	C1165.151978,32.004608 1480.804077,32.009171 1796.456055,32.020863 
	C1796.771240,32.020874 1797.086304,32.127861 1797.699951,32.238895 
	C1797.699951,124.261566 1797.699951,216.330536 1797.699951,308.699890 
	C1748.071167,308.699890 1698.333984,308.699890 1648.197266,308.699890 
	C1648.197266,266.734406 1648.197266,224.662354 1648.197266,182.295776 
	C1499.398193,182.295776 1350.997803,182.295776 1202.198242,182.295776 
	C1202.198242,224.264557 1202.198242,266.336639 1202.198242,308.703735 
	C1152.063477,308.703735 1102.326294,308.703735 1052.189453,308.703735 
	C1052.189453,266.726715 1052.189453,224.654648 1052.189453,182.291962 
	C1002.388062,182.291962 952.984253,182.291962 903.180786,182.291962 
	C903.180786,224.282013 903.180786,266.354095 903.180786,308.712402 
	C853.045959,308.712402 803.308838,308.712402 753.285645,308.712402 
	C753.285645,216.709549 753.285645,124.640640 753.285645,32.000000 
	C784.979065,32.000000 816.739563,32.000000 849.000000,32.000000 
z"/>
<path fill="#000000" opacity="1.000000" stroke="none" 
	d="
M777.000000,335.000000 
	C919.136658,335.000000 1060.773315,335.000000 1202.727783,335.000000 
	C1202.826660,336.445831 1202.989136,337.714111 1202.989258,338.982361 
	C1203.000977,444.141632 1202.986328,549.300903 1203.055664,654.460144 
	C1203.058105,658.216919 1202.627441,660.126892 1197.988037,660.109497 
	C1150.325317,659.930847 1102.661743,659.999939 1054.998413,659.999878 
	C1054.188110,659.999878 1053.377808,659.999817 1052.172485,659.999817 
	C1052.172485,587.040955 1052.172485,514.305176 1052.172485,441.285095 
	C1003.041809,441.285095 954.305481,441.285095 905.172913,441.285095 
	C905.172913,513.958618 905.172913,586.694336 905.172913,659.714661 
	C854.708923,659.714661 804.639404,659.714661 754.284668,659.714661 
	C754.284668,551.709900 754.284668,443.643402 754.284668,335.000000 
	C761.634888,335.000000 769.067444,335.000000 777.000000,335.000000 
z"/>
<path fill="#000000" opacity="1.000000" stroke="none" 
	d="
M1413.000000,563.000000 
	C1413.000000,445.526703 1413.000000,328.553436 1413.000000,211.290131 
	C1462.948975,211.290131 1512.686157,211.290131 1562.820312,211.290131 
	C1562.820312,310.618469 1562.820312,410.021118 1562.820312,509.820648 
	C1641.284912,509.820648 1719.355103,509.820648 1797.712280,509.820648 
	C1797.712280,559.953857 1797.712280,609.690979 1797.712280,659.714355 
	C1669.710571,659.714355 1541.642700,659.714355 1413.000000,659.714355 
	C1413.000000,627.689758 1413.000000,595.594910 1413.000000,563.000000 
z"/>
<path fill="#000000" opacity="1.000000" stroke="none" 
	d="
M95.137222,32.000008 
	C144.254074,32.000000 192.885483,32.000000 241.758118,32.000000 
	C241.758118,241.046112 241.758118,449.782593 241.758118,658.759583 
	C191.616440,658.759583 141.545074,658.759583 91.000000,658.759583 
	C91.000000,656.909729 91.000000,655.130981 91.000000,653.352173 
	C91.000000,448.021545 90.997124,242.690948 91.034668,37.360344 
	C91.035110,34.934124 89.533524,31.129181 95.137222,32.000008 
z"/>
<path fill="#000000" opacity="1.000000" stroke="none" 
	d="
M678.000000,32.000000 
	C694.810059,32.000000 711.120178,32.000000 727.714600,32.000000 
	C727.714600,72.625336 727.714600,113.029434 727.714600,153.830444 
	C626.704590,153.830444 525.635376,153.830444 424.169525,153.830444 
	C424.169525,234.961548 424.169525,315.698242 424.169525,396.717102 
	C374.036469,396.717102 324.299408,396.717102 274.280914,396.717102 
	C274.280914,275.367554 274.280914,153.966248 274.280914,32.000000 
	C408.651978,32.000000 543.075989,32.000000 678.000000,32.000000 
z"/>
<path fill="#000000" opacity="1.000000" stroke="none" 
	d="
M722.000000,371.000000 
	C722.000000,467.807190 722.000000,564.114380 722.000000,660.710693 
	C572.718506,660.710693 423.651489,660.710693 274.292175,660.710693 
	C274.292175,620.388428 274.292175,579.984253 274.292175,539.183105 
	C373.281769,539.183105 472.351013,539.183105 571.816895,539.183105 
	C571.816895,458.052032 571.816895,377.315369 571.816895,296.289703 
	C621.949829,296.289703 671.686951,296.289703 722.000000,296.289703 
	C722.000000,320.975739 722.000000,345.737885 722.000000,371.000000 
z"/>
<path fill="#000000" opacity="1.000000" stroke="none" 
	d="
M1378.000000,503.000000 
	C1378.000000,555.475525 1378.000000,607.451050 1378.000000,659.713135 
	C1328.044312,659.713135 1278.307129,659.713135 1228.284668,659.713135 
	C1228.284668,510.375458 1228.284668,360.974670 1228.284668,211.286865 
	C1277.955688,211.286865 1327.692871,211.286865 1378.000000,211.286865 
	C1378.000000,308.315430 1378.000000,405.407715 1378.000000,503.000000 
z"/>
<path fill="#000000" opacity="1.000000" stroke="none" 
	d="
M1833.000000,61.000000 
	C1833.000000,51.522686 1833.000000,42.545376 1833.000000,33.284882 
	C1871.626587,33.284882 1910.031128,33.284882 1948.718140,33.284882 
	C1948.718140,241.963089 1948.718140,450.696625 1948.718140,659.715149 
	C1910.373413,659.715149 1871.968872,659.715149 1833.000000,659.715149 
	C1833.000000,460.347107 1833.000000,260.923553 1833.000000,61.000000 
M1868.000000,620.498169 
	C1868.000000,624.265808 1868.000000,628.033508 1868.000000,631.724670 
	C1883.634521,631.724670 1898.697876,631.724670 1914.000000,631.724670 
	C1914.000000,627.814636 1914.106812,624.171326 1913.977539,620.536377 
	C1913.720215,613.308350 1913.840698,606.015686 1912.866333,598.877808 
	C1911.741699,590.639160 1902.220459,584.600952 1895.159424,590.045532 
	C1893.117310,591.620056 1891.656494,593.948425 1889.939087,595.940186 
	C1885.869629,590.455872 1881.010620,588.512939 1876.929688,591.044189 
	C1872.594727,593.732910 1869.644043,597.655762 1869.067627,602.792236 
	C1868.445435,608.335571 1868.334106,613.936218 1868.000000,620.498169 
M1871.651611,247.000000 
	C1885.720581,247.000000 1899.789551,247.000000 1914.000000,247.000000 
	C1914.000000,237.716873 1914.412354,229.046906 1913.821045,220.445923 
	C1913.537720,216.325867 1911.943848,212.004822 1909.896118,208.363785 
	C1906.637085,202.568512 1899.398804,201.789383 1894.402100,206.160828 
	C1892.746826,207.609039 1891.369141,209.374695 1889.426880,211.466568 
	C1888.543823,210.394836 1887.730347,209.355820 1886.863037,208.363815 
	C1882.758911,203.669388 1878.338379,204.984161 1874.683960,208.073776 
	C1872.590088,209.843887 1870.487915,212.721329 1870.194336,215.305328 
	C1869.067993,225.216858 1868.626709,235.209076 1868.122437,245.180969 
	C1868.093994,245.742676 1869.788208,246.391495 1871.651611,247.000000 
M1884.991089,455.516968 
	C1880.355103,460.822449 1875.581665,466.016510 1871.151123,471.488342 
	C1869.389160,473.664429 1868.386719,476.455566 1866.653809,479.683105 
	C1883.427246,479.683105 1898.638184,479.683105 1913.682129,479.683105 
	C1913.682129,474.957153 1913.682129,470.552704 1913.682129,465.802429 
	C1906.308716,465.802429 1899.248535,465.802429 1891.611694,465.802429 
	C1892.210327,464.774902 1892.422241,464.197845 1892.807739,463.781860 
	C1897.743652,458.456543 1902.880005,453.304321 1907.591919,447.789124 
	C1910.372314,444.534790 1912.490234,440.714539 1915.360840,436.477539 
	C1898.552368,435.407349 1883.407715,434.443146 1868.298584,433.481171 
	C1868.298584,439.338348 1868.298584,444.075165 1868.298584,448.975952 
	C1875.544434,448.975952 1882.493530,448.975952 1890.547485,448.975952 
	C1888.513062,451.403381 1887.006348,453.201263 1884.991089,455.516968 
M1914.000000,154.489136 
	C1914.000000,147.388168 1914.000000,140.287201 1914.000000,133.289978 
	C1910.347778,133.289978 1907.273071,133.289978 1903.825195,133.289978 
	C1903.825195,139.658707 1903.825195,145.743851 1903.825195,151.710724 
	C1901.017700,151.710724 1898.610718,151.710724 1895.823242,151.710724 
	C1895.823242,146.012726 1895.823242,140.597260 1895.823242,135.291992 
	C1892.343506,135.291992 1889.268677,135.291992 1885.821045,135.291992 
	C1885.821045,140.996552 1885.821045,146.414795 1885.821045,151.708344 
	C1883.013428,151.708344 1880.606323,151.708344 1877.819336,151.708344 
	C1877.819336,145.673798 1877.819336,139.926239 1877.819336,134.294388 
	C1874.339355,134.294388 1871.264526,134.294388 1868.294189,134.294388 
	C1868.294189,145.328033 1868.294189,156.064774 1868.294189,166.707840 
	C1883.658569,166.707840 1898.727173,166.707840 1914.000000,166.707840 
	C1914.000000,162.772583 1914.000000,159.127762 1914.000000,154.489136 
M1893.381104,520.000305 
	C1890.959839,520.000305 1888.538574,520.000305 1885.750488,520.000305 
	C1885.750488,526.077820 1885.750488,531.498169 1885.750488,536.667480 
	C1882.936279,536.667480 1880.530884,536.667480 1877.745361,536.667480 
	C1877.745361,530.254883 1877.745361,524.170105 1877.745361,518.336121 
	C1874.259521,518.336121 1871.185547,518.336121 1868.336914,518.336121 
	C1868.336914,529.413391 1868.336914,540.152466 1868.336914,550.661865 
	C1883.747070,550.661865 1898.819092,550.661865 1913.665649,550.661865 
	C1913.665649,539.576172 1913.665649,528.830627 1913.665649,518.342957 
	C1910.250488,518.342957 1907.175171,518.342957 1903.726807,518.342957 
	C1903.726807,524.772034 1903.726807,530.859375 1903.726807,536.654358 
	C1900.918823,536.654358 1898.508667,536.654358 1895.999878,536.654358 
	C1895.999878,531.818726 1896.095337,527.324524 1895.924194,522.840515 
	C1895.887329,521.876282 1894.887939,520.948730 1893.381104,520.000305 
M1878.628052,299.033844 
	C1876.000610,300.587433 1873.389771,302.170166 1870.741699,303.687714 
	C1866.894531,305.892334 1866.714844,309.786102 1870.577637,312.160950 
	C1874.264282,314.427551 1878.126709,316.413879 1881.950562,318.451019 
	C1892.228516,323.926636 1902.526978,329.363678 1913.941406,335.411591 
	C1913.941406,330.018494 1914.385010,325.409393 1913.684570,320.981201 
	C1913.459961,319.561646 1910.211060,318.620514 1908.000000,317.245331 
	C1908.000000,314.165436 1907.860352,310.676819 1908.036865,307.204254 
	C1908.236938,303.267517 1906.213257,298.301270 1912.409424,296.765167 
	C1912.762085,296.677765 1912.965088,295.362061 1912.973877,294.614868 
	C1913.025879,290.231293 1912.999390,285.846802 1912.999390,281.234833 
	C1901.489746,287.306854 1890.441528,293.135406 1878.628052,299.033844 
M1876.324585,398.995941 
	C1876.882935,398.053986 1877.851807,397.141907 1877.922974,396.164429 
	C1878.136475,393.229736 1877.999756,390.269592 1877.999756,386.938782 
	C1890.190430,386.938782 1901.933960,386.938782 1913.766479,386.938782 
	C1913.766479,381.798492 1913.766479,377.060333 1913.766479,371.927856 
	C1901.795166,371.927856 1890.051880,371.927856 1877.921875,371.927856 
	C1877.921875,367.791809 1877.921875,364.035828 1877.921875,360.238617 
	C1874.450806,360.238617 1871.378784,360.238617 1868.240479,360.238617 
	C1868.240479,373.220490 1868.240479,385.962372 1868.240479,398.999695 
	C1870.776978,398.999695 1873.076782,398.999695 1876.324585,398.995941 
M1877.996216,98.296707 
	C1877.996216,94.884727 1877.996216,91.472740 1877.996216,87.679092 
	C1890.462280,87.679092 1902.204590,87.679092 1913.635254,87.679092 
	C1913.635254,82.529160 1913.635254,77.783287 1913.635254,72.667152 
	C1901.530396,72.667152 1889.790405,72.667152 1877.841675,72.667152 
	C1877.841675,68.642914 1877.841675,65.016991 1877.841675,61.201260 
	C1874.548706,61.201260 1871.477051,61.201260 1868.202271,61.201260 
	C1868.202271,74.120598 1868.202271,86.861450 1868.202271,100.275620 
	C1871.596802,99.919167 1874.770874,99.585854 1877.996216,98.296707 
z"/>
<path fill="#FFFFFF" opacity="1.000000" stroke="none" 
	d="
M1868.000000,620.005005 
	C1868.334106,613.936218 1868.445435,608.335571 1869.067627,602.792236 
	C1869.644043,597.655762 1872.594727,593.732910 1876.929688,591.044189 
	C1881.010620,588.512939 1885.869629,590.455872 1889.934082,595.935669 
	C1891.656494,593.948425 1893.117310,591.620056 1895.159424,590.045532 
	C1902.220459,584.600952 1911.741699,590.639160 1912.866333,598.877808 
	C1913.840698,606.015686 1913.720215,613.308350 1913.977539,620.536377 
	C1914.106812,624.171326 1914.000000,627.814636 1914.000000,631.724670 
	C1898.697876,631.724670 1883.634521,631.724670 1868.000000,631.724670 
	C1868.000000,628.033508 1868.000000,624.265808 1868.000000,620.005005 
M1905.000000,609.761047 
	C1904.986816,606.098816 1904.685669,602.721252 1899.634277,602.984558 
	C1894.842407,603.234436 1895.123169,606.747620 1895.014404,609.995361 
	C1894.938965,612.245605 1895.000000,614.500366 1895.000000,616.765259 
	C1898.585938,616.765259 1901.644165,616.765259 1905.000000,616.765259 
	C1905.000000,614.584473 1905.000000,612.634399 1905.000000,609.761047 
M1887.000000,610.773682 
	C1887.319092,606.934814 1885.735840,604.082458 1881.736206,605.137939 
	C1874.820435,606.963074 1879.250366,612.712097 1877.898682,616.775818 
	C1881.206909,616.775818 1883.945557,616.775818 1887.000000,616.775818 
	C1887.000000,614.930176 1887.000000,613.304443 1887.000000,610.773682 
z"/>
<path fill="#FFFFFF" opacity="1.000000" stroke="none" 
	d="
M1871.166138,246.999878 
	C1869.788208,246.391495 1868.093994,245.742676 1868.122437,245.180969 
	C1868.626709,235.209076 1869.067993,225.216858 1870.194336,215.305328 
	C1870.487915,212.721329 1872.590088,209.843887 1874.683960,208.073776 
	C1878.338379,204.984161 1882.758911,203.669388 1886.863037,208.363815 
	C1887.730347,209.355820 1888.543823,210.394836 1889.426880,211.466568 
	C1891.369141,209.374695 1892.746826,207.609039 1894.402100,206.160828 
	C1899.398804,201.789383 1906.637085,202.568512 1909.896118,208.363785 
	C1911.943848,212.004822 1913.537720,216.325867 1913.821045,220.445923 
	C1914.412354,229.046906 1914.000000,237.716873 1914.000000,247.000000 
	C1899.789551,247.000000 1885.720581,247.000000 1871.166138,246.999878 
M1905.000000,224.907135 
	C1904.742920,221.448196 1903.767944,217.891754 1899.715942,218.182373 
	C1895.976074,218.450562 1894.637451,221.613846 1894.961182,225.384964 
	C1895.168213,227.797379 1895.000000,230.242035 1895.000000,232.803925 
	C1898.502075,232.803925 1901.559937,232.803925 1905.000000,232.803925 
	C1905.000000,230.343491 1905.000000,228.072235 1905.000000,224.907135 
M1878.001465,223.907623 
	C1878.001465,226.832199 1878.001465,229.756760 1878.001465,232.808350 
	C1881.165161,232.808350 1883.887695,232.808350 1886.996948,232.808350 
	C1886.996948,230.027328 1887.559204,227.254608 1886.818481,224.890076 
	C1886.228027,223.005142 1884.324829,221.075607 1882.503906,220.147568 
	C1880.232788,218.990082 1878.714722,220.761383 1878.001465,223.907623 
z"/>
<path fill="#FFFFFF" opacity="1.000000" stroke="none" 
	d="
M1885.245361,455.258057 
	C1887.006348,453.201263 1888.513062,451.403381 1890.547485,448.975952 
	C1882.493530,448.975952 1875.544434,448.975952 1868.298584,448.975952 
	C1868.298584,444.075165 1868.298584,439.338348 1868.298584,433.481171 
	C1883.407715,434.443146 1898.552368,435.407349 1915.360840,436.477539 
	C1912.490234,440.714539 1910.372314,444.534790 1907.591919,447.789124 
	C1902.880005,453.304321 1897.743652,458.456543 1892.807739,463.781860 
	C1892.422241,464.197845 1892.210327,464.774902 1891.611694,465.802429 
	C1899.248535,465.802429 1906.308716,465.802429 1913.682129,465.802429 
	C1913.682129,470.552704 1913.682129,474.957153 1913.682129,479.683105 
	C1898.638184,479.683105 1883.427246,479.683105 1866.653809,479.683105 
	C1868.386719,476.455566 1869.389160,473.664429 1871.151123,471.488342 
	C1875.581665,466.016510 1880.355103,460.822449 1885.245361,455.258057 
z"/>
<path fill="#FFFFFF" opacity="1.000000" stroke="none" 
	d="
M1914.000000,154.986038 
	C1914.000000,159.127762 1914.000000,162.772583 1914.000000,166.707840 
	C1898.727173,166.707840 1883.658569,166.707840 1868.294189,166.707840 
	C1868.294189,156.064774 1868.294189,145.328033 1868.294189,134.294388 
	C1871.264526,134.294388 1874.339355,134.294388 1877.819336,134.294388 
	C1877.819336,139.926239 1877.819336,145.673798 1877.819336,151.708344 
	C1880.606323,151.708344 1883.013428,151.708344 1885.821045,151.708344 
	C1885.821045,146.414795 1885.821045,140.996552 1885.821045,135.291992 
	C1889.268677,135.291992 1892.343506,135.291992 1895.823242,135.291992 
	C1895.823242,140.597260 1895.823242,146.012726 1895.823242,151.710724 
	C1898.610718,151.710724 1901.017700,151.710724 1903.825195,151.710724 
	C1903.825195,145.743851 1903.825195,139.658707 1903.825195,133.289978 
	C1907.273071,133.289978 1910.347778,133.289978 1914.000000,133.289978 
	C1914.000000,140.287201 1914.000000,147.388168 1914.000000,154.986038 
z"/>
<path fill="#FFFFFF" opacity="1.000000" stroke="none" 
	d="
M1893.856567,520.002319 
	C1894.887939,520.948730 1895.887329,521.876282 1895.924194,522.840515 
	C1896.095337,527.324524 1895.999878,531.818726 1895.999878,536.654358 
	C1898.508667,536.654358 1900.918823,536.654358 1903.726807,536.654358 
	C1903.726807,530.859375 1903.726807,524.772034 1903.726807,518.342957 
	C1907.175171,518.342957 1910.250488,518.342957 1913.665649,518.342957 
	C1913.665649,528.830627 1913.665649,539.576172 1913.665649,550.661865 
	C1898.819092,550.661865 1883.747070,550.661865 1868.336914,550.661865 
	C1868.336914,540.152466 1868.336914,529.413391 1868.336914,518.336121 
	C1871.185547,518.336121 1874.259521,518.336121 1877.745361,518.336121 
	C1877.745361,524.170105 1877.745361,530.254883 1877.745361,536.667480 
	C1880.530884,536.667480 1882.936279,536.667480 1885.750488,536.667480 
	C1885.750488,531.498169 1885.750488,526.077820 1885.750488,520.000305 
	C1888.538574,520.000305 1890.959839,520.000305 1893.856567,520.002319 
z"/>
<path fill="#FFFFFF" opacity="1.000000" stroke="none" 
	d="
M1879.010742,298.998901 
	C1890.441528,293.135406 1901.489746,287.306854 1912.999390,281.234833 
	C1912.999390,285.846802 1913.025879,290.231293 1912.973877,294.614868 
	C1912.965088,295.362061 1912.762085,296.677765 1912.409424,296.765167 
	C1906.213257,298.301270 1908.236938,303.267517 1908.036865,307.204254 
	C1907.860352,310.676819 1908.000000,314.165436 1908.000000,317.245331 
	C1910.211060,318.620514 1913.459961,319.561646 1913.684570,320.981201 
	C1914.385010,325.409393 1913.941406,330.018494 1913.941406,335.411591 
	C1902.526978,329.363678 1892.228516,323.926636 1881.950562,318.451019 
	C1878.126709,316.413879 1874.264282,314.427551 1870.577637,312.160950 
	C1866.714844,309.786102 1866.894531,305.892334 1870.741699,303.687714 
	C1873.389771,302.170166 1876.000610,300.587433 1879.010742,298.998901 
M1891.334473,310.038788 
	C1893.732544,311.093933 1896.130493,312.149078 1898.818359,313.331757 
	C1898.818359,309.825867 1898.818359,307.046509 1898.818359,303.289459 
	C1894.258667,304.904572 1890.172485,306.351959 1884.914429,308.214447 
	C1887.806274,309.133087 1889.172119,309.566956 1891.334473,310.038788 
z"/>
<path fill="#FFFFFF" opacity="1.000000" stroke="none" 
	d="
M1875.850586,398.997803 
	C1873.076782,398.999695 1870.776978,398.999695 1868.240479,398.999695 
	C1868.240479,385.962372 1868.240479,373.220490 1868.240479,360.238617 
	C1871.378784,360.238617 1874.450806,360.238617 1877.921875,360.238617 
	C1877.921875,364.035828 1877.921875,367.791809 1877.921875,371.927856 
	C1890.051880,371.927856 1901.795166,371.927856 1913.766479,371.927856 
	C1913.766479,377.060333 1913.766479,381.798492 1913.766479,386.938782 
	C1901.933960,386.938782 1890.190430,386.938782 1877.999756,386.938782 
	C1877.999756,390.269592 1878.136475,393.229736 1877.922974,396.164429 
	C1877.851807,397.141907 1876.882935,398.053986 1875.850586,398.997803 
z"/>
<path fill="#FFFFFF" opacity="1.000000" stroke="none" 
	d="
M1877.970581,98.774628 
	C1874.770874,99.585854 1871.596802,99.919167 1868.202271,100.275620 
	C1868.202271,86.861450 1868.202271,74.120598 1868.202271,61.201260 
	C1871.477051,61.201260 1874.548706,61.201260 1877.841675,61.201260 
	C1877.841675,65.016991 1877.841675,68.642914 1877.841675,72.667152 
	C1889.790405,72.667152 1901.530396,72.667152 1913.635254,72.667152 
	C1913.635254,77.783287 1913.635254,82.529160 1913.635254,87.679092 
	C1902.204590,87.679092 1890.462280,87.679092 1877.996216,87.679092 
	C1877.996216,91.472740 1877.996216,94.884727 1877.970581,98.774628 
z"/>
<path fill="#000000" opacity="1.000000" stroke="none" 
	d="
M1905.000000,610.222717 
	C1905.000000,612.634399 1905.000000,614.584473 1905.000000,616.765259 
	C1901.644165,616.765259 1898.585938,616.765259 1895.000000,616.765259 
	C1895.000000,614.500366 1894.938965,612.245605 1895.014404,609.995361 
	C1895.123169,606.747620 1894.842407,603.234436 1899.634277,602.984558 
	C1904.685669,602.721252 1904.986816,606.098816 1905.000000,610.222717 
z"/>
<path fill="#000000" opacity="1.000000" stroke="none" 
	d="
M1887.000000,611.226196 
	C1887.000000,613.304443 1887.000000,614.930176 1887.000000,616.775818 
	C1883.945557,616.775818 1881.206909,616.775818 1877.898682,616.775818 
	C1879.250366,612.712097 1874.820435,606.963074 1881.736206,605.137939 
	C1885.735840,604.082458 1887.319092,606.934814 1887.000000,611.226196 
z"/>
<path fill="#000000" opacity="1.000000" stroke="none" 
	d="
M1905.000000,225.354065 
	C1905.000000,228.072235 1905.000000,230.343491 1905.000000,232.803925 
	C1901.559937,232.803925 1898.502075,232.803925 1895.000000,232.803925 
	C1895.000000,230.242035 1895.168213,227.797379 1894.961182,225.384964 
	C1894.637451,221.613846 1895.976074,218.450562 1899.715942,218.182373 
	C1903.767944,217.891754 1904.742920,221.448196 1905.000000,225.354065 
z"/>
<path fill="#000000" opacity="1.000000" stroke="none" 
	d="
M1878.010986,223.459564 
	C1878.714722,220.761383 1880.232788,218.990082 1882.503906,220.147568 
	C1884.324829,221.075607 1886.228027,223.005142 1886.818481,224.890076 
	C1887.559204,227.254608 1886.996948,230.027328 1886.996948,232.808350 
	C1883.887695,232.808350 1881.165161,232.808350 1878.001465,232.808350 
	C1878.001465,229.756760 1878.001465,226.832199 1878.010986,223.459564 
z"/>
<path fill="#000000" opacity="1.000000" stroke="none" 
	d="
M1890.936279,310.019836 
	C1889.172119,309.566956 1887.806274,309.133087 1884.914429,308.214447 
	C1890.172485,306.351959 1894.258667,304.904572 1898.818359,303.289459 
	C1898.818359,307.046509 1898.818359,309.825867 1898.818359,313.331757 
	C1896.130493,312.149078 1893.732544,311.093933 1890.936279,310.019836 
z"/>
</svg>