<?xml version="1.0" ?><!DOCTYPE svg  PUBLIC '-//W3C//DTD SVG 1.1//EN'  'http://www.w3.org/Graphics/SVG/1.1/DTD/svg11.dtd'><svg height="120px" id="Layer_1" style="enable-background:new 4 4 120 120;" version="1.1" viewBox="4 4 120 120" width="120px" xml:space="preserve" xmlns="http://www.w3.org/2000/svg" xmlns:xlink="http://www.w3.org/1999/xlink"><g id="folder5"><g><path d="M2576.223,2568.208c-0.037-0.726-0.416-1.104-1.141-1.137c-0.49-0.654-1.609,0.463-2.568,0.282    c-0.537,0.8-1.271,1.391-1.43,2.566c-0.499,0.736-0.113,2.355-1.139,2.566c-0.623,0.27-2.562-0.173-3.994,0    c-1.393-0.032-3.01,0.152-3.996-0.281c-2.824-0.03-5.418-0.293-7.701-0.858c-3.721,0.657-8.646,0.104-12.838,0.284    c-0.936-0.012-1.092-0.811-2.283-0.57c-1.217,0.117-2.938-0.274-3.709,0.286h-1.996c-0.547-0.132-1.229,0.878-1.145-0.286    c-0.402-0.023-0.807-0.048-0.855,0.286c-1.211,0.218-2.496,0.354-3.705,0.572h-4.851c-1.085,0.161-3.3,0.683-4.28,0    c1.584-2.979,3.232-5.898,4.564-9.132c0.602-1.68,1.36-3.203,2.282-4.564c0.259-0.881,0.711-1.568,1.14-2.281    c0.743-0.214,1.168-1.602,0.568-2.281c-2.271-0.707-3.75,1.468-4.56,3.14c-1.197,1.559-1.863,3.655-3.142,5.133    c-2.024,3.396-4.193,6.649-5.99,10.272c-2.391-0.012-4.312,0.441-6.562,0.567c1.134-3.337,2.709-6.228,4.28-9.129    c1.002-1.188,1.368-3.003,2.565-3.993c0.328-1.542,2.275-2.779,1.428-4.565c-2.111-0.995-3.284,1.229-4.28,2.282    c-1.23,1.053-1.935,2.629-3.138,3.709c-0.709,1.572-1.664,2.9-2.565,4.279c-0.188,0.954-0.889,1.396-1.144,2.282    c-0.463,0.679-0.641,1.642-1.14,2.282v1.999c0.345-0.091,0.981,0.823,0.284,0.854c-1.752-0.148-4.129,0.327-5.421-0.284    c1.567-1.379,2.159-3.735,2.854-5.99c1.03-1.819,1.598-4.105,2.565-5.991c0.682-2.265,1.803-4.093,2.568-6.277    c0.323-1.101,1.229-1.623,1.424-2.852c0.572-0.608,1.646-1.789,0.854-2.853c-2.416-0.846-3.817,1.657-4.848,3.135    c-1.371,1.486-2.371,3.336-3.139,5.423c-1.969,3.641-3.508,7.715-4.852,11.98c-0.326,0.337-0.322,1.011-0.283,1.714    c-0.273,0.531,0.854,0.951,0,1.143c-1.201-1.084-1.648-2.917-1.711-5.138c-0.053-0.621,0.231-0.905,0.854-0.857    c0.039-0.528,0.187-0.95,0.568-1.137c0.437-2.42,1.445-4.265,1.998-6.563c0.914-1.844,1.334-4.183,2.283-5.991    c0.705-2.052,1.071-4.444,2.28-5.988c0.201-2.218,2.397-3.83,1.431-6.278c-1.609-0.574-2.837,1.484-3.711,2.566    c-0.771,1.512-1.843,2.723-2.283,4.564c-1.879,2.588-2.742,6.199-4.277,9.131c0.306-0.905-1.106-2.398,0.283-2.567    c0.551-0.593,0.902-1.384,1.428-1.999c0.979-3.965,2.271-7.62,3.425-11.41c0.737-1.734,1.35-3.596,1.996-5.42    c0.446-0.791,0.887-1.589,1.143-2.568c0.701-0.256,0.771-1.996,0.283-2.568c-0.619-0.477-2.568-0.459-2.852,0.287    c-0.853,0.021-1.187,2.025-1.714,1.425c0.576-1.419,1.058-2.938,1.427-4.563c0.606-1.158,1.747-2.992,0.571-4.279    c-3.158-0.968-4.123,2.465-5.135,4.565c-1.031,2.297-1.57,5.085-2.854,7.13c0.158-4.214,1.189-7.559,0.855-12.265    c-0.139-0.902,0.516-1.009,0.285-1.998c0.182-4.193-0.367-9.119,0.284-12.841c4.218,0.223,7.5-0.485,10.845-1.14    c4.895,0.104,6.59-0.462,10.84,0.285c2.43,2.419,3.25,6.448,4.563,9.983c0.656,0.577,1.449,1.022,1.996,1.713    c0.838,0.3,1.892,0.393,2.57,0.855c12.469,0.119,24.617-0.999,36.801-0.284c3.125,0.775,6.554,1.245,9.129,2.564    c1.181-0.037,2.203,0.08,2.855,0.571c1.018,0.025,1.957,0.134,2.282,0.855c0.666,1.443,0,2.509,0,3.708    c0.537,0.697,0.609,1.862,0.566,3.14c0.495,0.65,0.612,1.674,0.572,2.854c1.301-0.257,1.615,0.477,2.565,0.569    c1.437-2.692,1.416-8.226,0.855-11.979c-0.544-0.787-1.164-1.5-1.711-2.283c-0.547-0.782-2.166-0.498-2.566-1.43    c-0.643-4.255,1.673-8.312-0.571-10.839c-5.449-0.635-12.209,0.035-17.404-0.858c-11.451,0.91-24.973-0.247-35.375,1.713    c-0.914-2.315-2.019-4.448-3.709-5.989c-4.049-1.873-7.392-1.186-11.983-1.426c-4.686,0.541-8.312,2.146-13.405,2.282    c-0.845,0.394-1.157,1.315-2,1.71c-0.473,0.764-1.965,0.505-2.565,1.143c-0.488,1.605-1.403,2.777-1.713,4.563    c-0.162,3.828,0.346,8.332-0.284,11.695c0.649,0.396,0.104,1.987,0.284,2.854v8.845c0.547,4.306,1.094,8.608,1.713,12.838v7.418    c0.682,3.4,0.635,7.09,0.854,11.412c0.232,4.521,1.252,8.342,3.14,11.129c0.713-0.049,0.894,0.437,1.139,0.854    c1.74,0.547,3.495,1.073,5.424,1.427h10.841c8.75-1.237,20.086,0.114,28.53-1.427h13.406c0.94,0.199,1.824,0.459,2.854,0.572    c6.377,0.143,12.818,1.555,19.4,0.566c1.42-0.859,2.076-2.486,3.137-3.709c0.185-1.431,0.756-2.476,0.855-3.992    C2576.898,2569.556,2577.004,2568.213,2576.223,2568.208z M2524.868,2509.438c5.741-0.48,13.372-0.461,19.114,0    c7.323-0.191,14.094,0.174,20.254,1.142h5.137c-0.211,1.788-0.387,3.604-0.283,5.706c-3.098-0.991-6.097-2.082-9.701-2.566    c-7.748,0.416-15.762,0.184-23.395-0.287c-4.412,0.182-8.229-0.072-13.122,0c-0.55-1.063-0.901-2.327-1.143-3.707    C2522.908,2509.761,2523.518,2509.229,2524.868,2509.438z M2578.789,2553.089c-0.162-2.442,0.191-4.373,0.285-6.561    c-0.586-1.259-2.017-1.411-2.853-2.283c-0.942-0.679-2.182,0.233-2.854-0.285c0.108-2.844-0.266-6.159,0.288-8.559    c-0.542-0.79-0.78-1.884-1.427-2.568c-0.92-0.508-0.978-1.877-2.283-1.998c-0.035-0.631-1.21-0.12-1.713-0.284    c-0.242-0.425-0.717-0.613-1.426-0.568c-1.938,0.34-3.978,0.584-6.276,0.568c-0.899,1.003-2.153,1.653-3.138,2.566    c-0.957,1.515-1.728,3.22-2.57,4.85c0.199,2.387-0.479,3.895-0.283,6.278c-1.865,0.04-3.482,0.32-4.85,0.854    c-2.623,4.521-0.299,11.021-1.144,16.832c0.039,1.104,1.156,1.127,1.427,2c0.17,1.062,0.998,1.473,1.428,2.28    c4.156,1.739,10.342,1.449,16.264,1.427c1.84-0.632,3.377-1.567,5.135-2.282c1.217-1.733,3.174-2.72,3.99-4.851    c0.83-0.822-0.553-0.892-0.283-1.997C2577.816,2557.255,2578.229,2555.097,2578.789,2553.089z M2561.385,2534.258    c1.2-1.129,3.478-0.857,5.422-0.566c0.285,0.378,0.269,1.059,0.857,1.141c0.393,0.174,0.041,1.098,0.568,1.143v7.986    c-2.585,0.664-6.148,0.147-8.844,0C2559.277,2539.949,2560.156,2536.929,2561.385,2534.258z M2573.655,2558.795    c-0.655,0.771-1.013,1.841-1.999,2.282c-0.543,0.787-1.113,1.551-1.996,1.998c-2.127-0.457-4.592,0.237-6.851,0.282    c-1.012,0.023-2.017-0.176-3.134-0.282c-1.206-0.118-2.612,0.03-3.425-0.286c-0.117-0.048,0.01-0.27-0.289-0.284    c-0.479-0.026-0.576-0.827-1.142-0.854c-0.516-0.029-0.458-0.935-1.138-1.144c0.021-0.405,0.046-0.811-0.288-0.854    c-0.21-2.303,0.465-3.723,0.288-5.991c0.069-0.976,0.72-1.371,0.569-2.565c0.176-0.775-0.363-2.27,0.285-2.567    c0.778,0.207,0.573-0.568,1.141-0.57c6.28,0.279,12.686,0.438,18.826,0.854c0.404,1.902,0.068,4.062-0.566,5.706    C2574.064,2556.165,2573.82,2557.438,2573.655,2558.795z M2566.234,2550.521c-1.361-0.648-3.036-0.037-4.279,0.284    c-0.373,0.861-0.92,1.55-0.854,2.854c0.257,1.264,1.369,1.673,1.998,2.568c-0.444,0.414-0.602,1.109-0.571,1.994    c0.633,0.509,1.156,1.123,2.565,0.855c0.812-0.709,0.991-2.054,0.856-3.709c0.545-0.783,1.091-1.57,1.142-2.852    C2566.781,2551.88,2566.621,2551.091,2566.234,2550.521z M2532.283,2571.062    C2532.701,2570.888,2532.258,2570.717,2532.283,2571.062L2532.283,2571.062z"/></g></g><g id="folder5_2_"><g><path d="M2576.223,2568.208c-0.037-0.726-0.416-1.104-1.141-1.137c-0.49-0.654-1.609,0.463-2.568,0.282    c-0.537,0.8-1.271,1.391-1.43,2.566c-0.499,0.736-0.113,2.355-1.139,2.566c-0.623,0.27-2.562-0.173-3.994,0    c-1.393-0.032-3.01,0.152-3.996-0.281c-2.824-0.03-5.418-0.293-7.701-0.858c-3.721,0.657-8.646,0.104-12.838,0.284    c-0.936-0.012-1.092-0.811-2.283-0.57c-1.217,0.117-2.938-0.274-3.709,0.286h-1.996c-0.547-0.132-1.229,0.878-1.145-0.286    c-0.402-0.023-0.807-0.048-0.855,0.286c-1.211,0.218-2.496,0.354-3.705,0.572h-4.851c-1.085,0.161-3.3,0.683-4.28,0    c1.584-2.979,3.232-5.898,4.564-9.132c0.602-1.68,1.36-3.203,2.282-4.564c0.259-0.881,0.711-1.568,1.14-2.281    c0.743-0.214,1.168-1.602,0.568-2.281c-2.271-0.707-3.75,1.468-4.56,3.14c-1.197,1.559-1.863,3.655-3.142,5.133    c-2.024,3.396-4.193,6.649-5.99,10.272c-2.391-0.012-4.312,0.441-6.562,0.567c1.134-3.337,2.709-6.228,4.28-9.129    c1.002-1.188,1.368-3.003,2.565-3.993c0.328-1.542,2.275-2.779,1.428-4.565c-2.111-0.995-3.284,1.229-4.28,2.282    c-1.23,1.053-1.935,2.629-3.138,3.709c-0.709,1.572-1.664,2.9-2.565,4.279c-0.188,0.954-0.889,1.396-1.144,2.282    c-0.463,0.679-0.641,1.642-1.14,2.282v1.999c0.345-0.091,0.981,0.823,0.284,0.854c-1.752-0.148-4.129,0.327-5.421-0.284    c1.567-1.379,2.159-3.735,2.854-5.99c1.03-1.819,1.598-4.105,2.565-5.991c0.682-2.265,1.803-4.093,2.568-6.277    c0.323-1.101,1.229-1.623,1.424-2.852c0.572-0.608,1.646-1.789,0.854-2.853c-2.416-0.846-3.817,1.657-4.848,3.135    c-1.371,1.486-2.371,3.336-3.139,5.423c-1.969,3.641-3.508,7.715-4.852,11.98c-0.326,0.337-0.322,1.011-0.283,1.714    c-0.273,0.531,0.854,0.951,0,1.143c-1.201-1.084-1.648-2.917-1.711-5.138c-0.053-0.621,0.231-0.905,0.854-0.857    c0.039-0.528,0.187-0.95,0.568-1.137c0.437-2.42,1.445-4.265,1.998-6.563c0.914-1.844,1.334-4.183,2.283-5.991    c0.705-2.052,1.071-4.444,2.28-5.988c0.201-2.218,2.397-3.83,1.431-6.278c-1.609-0.574-2.837,1.484-3.711,2.566    c-0.771,1.512-1.843,2.723-2.283,4.564c-1.879,2.588-2.742,6.199-4.277,9.131c0.306-0.905-1.106-2.398,0.283-2.567    c0.551-0.593,0.902-1.384,1.428-1.999c0.979-3.965,2.271-7.62,3.425-11.41c0.737-1.734,1.35-3.596,1.996-5.42    c0.446-0.791,0.887-1.589,1.143-2.568c0.701-0.256,0.771-1.996,0.283-2.568c-0.619-0.477-2.568-0.459-2.852,0.287    c-0.853,0.021-1.187,2.025-1.714,1.425c0.576-1.419,1.058-2.938,1.427-4.563c0.606-1.158,1.747-2.992,0.571-4.279    c-3.158-0.968-4.123,2.465-5.135,4.565c-1.031,2.297-1.57,5.085-2.854,7.13c0.158-4.214,1.189-7.559,0.855-12.265    c-0.139-0.902,0.516-1.009,0.285-1.998c0.182-4.193-0.367-9.119,0.284-12.841c4.218,0.223,7.5-0.485,10.845-1.14    c4.895,0.104,6.59-0.462,10.84,0.285c2.43,2.419,3.25,6.448,4.563,9.983c0.656,0.577,1.449,1.022,1.996,1.713    c0.838,0.3,1.892,0.393,2.57,0.855c12.469,0.119,24.617-0.999,36.801-0.284c3.125,0.775,6.554,1.245,9.129,2.564    c1.181-0.037,2.203,0.08,2.855,0.571c1.018,0.025,1.957,0.134,2.282,0.855c0.666,1.443,0,2.509,0,3.708    c0.537,0.697,0.609,1.862,0.566,3.14c0.495,0.65,0.612,1.674,0.572,2.854c1.301-0.257,1.615,0.477,2.565,0.569    c1.437-2.692,1.416-8.226,0.855-11.979c-0.544-0.787-1.164-1.5-1.711-2.283c-0.547-0.782-2.166-0.498-2.566-1.43    c-0.643-4.255,1.673-8.312-0.571-10.839c-5.449-0.635-12.209,0.035-17.404-0.858c-11.451,0.91-24.973-0.247-35.375,1.713    c-0.914-2.315-2.019-4.448-3.709-5.989c-4.049-1.873-7.392-1.186-11.983-1.426c-4.686,0.541-8.312,2.146-13.405,2.282    c-0.845,0.394-1.157,1.315-2,1.71c-0.473,0.764-1.965,0.505-2.565,1.143c-0.488,1.605-1.403,2.777-1.713,4.563    c-0.162,3.828,0.346,8.332-0.284,11.695c0.649,0.396,0.104,1.987,0.284,2.854v8.845c0.547,4.306,1.094,8.608,1.713,12.838v7.418    c0.682,3.4,0.635,7.09,0.854,11.412c0.232,4.521,1.252,8.342,3.14,11.129c0.713-0.049,0.894,0.437,1.139,0.854    c1.74,0.547,3.495,1.073,5.424,1.427h10.841c8.75-1.237,20.086,0.114,28.53-1.427h13.406c0.94,0.199,1.824,0.459,2.854,0.572    c6.377,0.143,12.818,1.555,19.4,0.566c1.42-0.859,2.076-2.486,3.137-3.709c0.185-1.431,0.756-2.476,0.855-3.992    C2576.898,2569.556,2577.004,2568.213,2576.223,2568.208z M2524.868,2509.438c5.741-0.48,13.372-0.461,19.114,0    c7.323-0.191,14.094,0.174,20.254,1.142h5.137c-0.211,1.788-0.387,3.604-0.283,5.706c-3.098-0.991-6.097-2.082-9.701-2.566    c-7.748,0.416-15.762,0.184-23.395-0.287c-4.412,0.182-8.229-0.072-13.122,0c-0.55-1.063-0.901-2.327-1.143-3.707    C2522.908,2509.761,2523.518,2509.229,2524.868,2509.438z M2578.789,2553.089c-0.162-2.442,0.191-4.373,0.285-6.561    c-0.586-1.259-2.017-1.411-2.853-2.283c-0.942-0.679-2.182,0.233-2.854-0.285c0.108-2.844-0.266-6.159,0.288-8.559    c-0.542-0.79-0.78-1.884-1.427-2.568c-0.92-0.508-0.978-1.877-2.283-1.998c-0.035-0.631-1.21-0.12-1.713-0.284    c-0.242-0.425-0.717-0.613-1.426-0.568c-1.938,0.34-3.978,0.584-6.276,0.568c-0.899,1.003-2.153,1.653-3.138,2.566    c-0.957,1.515-1.728,3.22-2.57,4.85c0.199,2.387-0.479,3.895-0.283,6.278c-1.865,0.04-3.482,0.32-4.85,0.854    c-2.623,4.521-0.299,11.021-1.144,16.832c0.039,1.104,1.156,1.127,1.427,2c0.17,1.062,0.998,1.473,1.428,2.28    c4.156,1.739,10.342,1.449,16.264,1.427c1.84-0.632,3.377-1.567,5.135-2.282c1.217-1.733,3.174-2.72,3.99-4.851    c0.83-0.822-0.553-0.892-0.283-1.997C2577.816,2557.255,2578.229,2555.097,2578.789,2553.089z M2561.385,2534.258    c1.2-1.129,3.478-0.857,5.422-0.566c0.285,0.378,0.269,1.059,0.857,1.141c0.393,0.174,0.041,1.098,0.568,1.143v7.986    c-2.585,0.664-6.148,0.147-8.844,0C2559.277,2539.949,2560.156,2536.929,2561.385,2534.258z M2573.655,2558.795    c-0.655,0.771-1.013,1.841-1.999,2.282c-0.543,0.787-1.113,1.551-1.996,1.998c-2.127-0.457-4.592,0.237-6.851,0.282    c-1.012,0.023-2.017-0.176-3.134-0.282c-1.206-0.118-2.612,0.03-3.425-0.286c-0.117-0.048,0.01-0.27-0.289-0.284    c-0.479-0.026-0.576-0.827-1.142-0.854c-0.516-0.029-0.458-0.935-1.138-1.144c0.021-0.405,0.046-0.811-0.288-0.854    c-0.21-2.303,0.465-3.723,0.288-5.991c0.069-0.976,0.72-1.371,0.569-2.565c0.176-0.775-0.363-2.27,0.285-2.567    c0.778,0.207,0.573-0.568,1.141-0.57c6.28,0.279,12.686,0.438,18.826,0.854c0.404,1.902,0.068,4.062-0.566,5.706    C2574.064,2556.165,2573.82,2557.438,2573.655,2558.795z M2566.234,2550.521c-1.361-0.648-3.036-0.037-4.279,0.284    c-0.373,0.861-0.92,1.55-0.854,2.854c0.257,1.264,1.369,1.673,1.998,2.568c-0.444,0.414-0.602,1.109-0.571,1.994    c0.633,0.509,1.156,1.123,2.565,0.855c0.812-0.709,0.991-2.054,0.856-3.709c0.545-0.783,1.091-1.57,1.142-2.852    C2566.781,2551.88,2566.621,2551.091,2566.234,2550.521z M2532.283,2571.062    C2532.701,2570.888,2532.258,2570.717,2532.283,2571.062L2532.283,2571.062z"/></g></g><g id="umbrella"><g><path d="M2392.982,3060.087c-0.992-5.074-2.472-9.66-4.627-13.573c-0.478-2.604-2.248-3.919-3.084-6.168    c-1.024-0.518-1.045-2.042-2.158-2.467c-0.201-1.343-1.605-1.48-1.851-2.773c-6.118-6.225-13.602-11.075-24.677-12.342    c-4.04-0.174-8.8,0.37-12.339-0.306c-0.874-1.903,0.06-5.612-2.468-5.864c-0.304-0.943-0.819,0.357-1.233,0.312    c-1.562,1.462,0.327,4.76-0.615,6.476c-16.7,2.221-28.545,9.296-37.938,18.815c-1.165,2.849-3.271,4.754-4.627,7.403    c-1.35,2.662-2.66,5.36-4.01,8.021c0.191,2.453-0.536,3.986-0.312,6.479c-0.071,1.307,0.289,2.184,0.619,3.084    c-0.517,1.511-0.957,3.336,0.309,4.315c1.758,0.221,2.525-1.08,3.396-1.848c0.941-0.832,1.491-1.96,2.776-2.468    c0.826-0.407,1.64-0.83,2.466-1.235c1.963-0.401,4.411-0.316,6.788-0.312c0.999,0.751,2.182,1.315,3.392,1.853    c-0.071,0.586,0.352,0.68,0.308,1.232c0.838-0.22-0.221,1.457,0.617,1.235c-0.06,1.191,0.487,1.773,1.542,1.852    c2.25-0.321,2.189-2.953,3.087-4.625c3.226-3.604,9.314-5.846,16.35-4.627c0.673,0.659,1.712,0.959,2.158,1.85    c0.511,0.823,1.763,0.906,1.85,2.159c-0.196,1.14-0.837,1.834-0.619,3.393v28.688c0.31,0.823,0.639,1.626,0.619,2.775    c2.166,3.691,4.191,7.528,8.328,9.253c3.621,0.885,6.41,1.078,9.869,0.311c1.217-0.842,2.271-1.84,3.394-2.777    c0.577-1.48,2.236-1.875,3.083-3.084c1.177-3.041,2.438-5.995,2.163-10.487c-0.826-1.336-1.394-2.928-2.777-3.702    c-0.549-1.373-2.751-2.498-4.629-1.543c-2.088,3.338,2.179,4.789,2.468,7.711c-0.586,5.068-3.535,7.771-9.873,7.099    c-2.942-2.502-3.841-7.06-5.24-11.107c-1.032-4.515-1.773-9.327-2.467-14.187c-0.096-4.001,0.049-7.768,0.312-11.415    c0.09-0.834,1.296-0.55,1.539-1.232c0.351-0.678,1.032-1.023,1.235-1.851c1.143-0.912,2.211-1.902,3.394-2.776    c2.679-0.919,5.154-2.042,8.944-1.85c1.809,0.862,3.586,1.759,4.625,3.39c1.056,1.005,0.26,3.857,2.16,4.014    c2.969-0.426,3.104-3.681,5.861-4.318c1.857-1.223,5.28-0.888,8.325-0.927c1.175,1.093,2.864,1.66,3.702,3.086    c1.501,0.862,1.352,3.377,4.012,3.084c0.114-2.687-1.387-3.756-2.466-5.243c-1.673-1.008-2.396-2.953-4.32-3.701    c-1.593-0.26-2.735-0.969-4.632-0.926c-2.235-0.077-3.718,1.17-5.549,0.616c-0.865-7.978-4.36-13.321-8.019-18.508    c-0.79-1.782-1.855-3.287-2.469-5.241c-0.454-0.271-0.978-0.464-0.927-1.236c-0.851-0.591-1.567-1.309-2.158-2.159    c-0.954-0.691-2.042-1.245-2.777-2.157c-0.787-0.036-1.079-0.566-1.539-0.927c-0.275-0.181-1.763-0.647-0.925-0.925h6.168    c1.481,0.366,2.959,0.741,4.627,0.925c0.26,0.665,1.59,0.261,1.851,0.927c0.976-0.053,1.031,0.818,2.159,0.615    c2.329,1.374,4.341,3.064,6.785,4.32c3.011,3.057,5.718,6.414,8.021,10.18c2.487,3.678,3.998,8.341,5.551,12.953    c0.024,2.135,0.921,3.396,0.927,5.55c0.68,1.48,0.762,3.556,3.081,3.396C2393.234,3066.303,2393.015,3063.1,2392.982,3060.087z     M2304.768,3055.152c0.162,0.158-0.225,0.394-0.307,0.31C2304.301,3055.298,2304.686,3055.064,2304.768,3055.152z     M2301.992,3055.77c-0.008,0.302-0.378,0.238-0.618,0.309C2301.382,3055.775,2301.752,3055.839,2301.992,3055.77z     M2314.639,3063.789c-1.372-0.171-2.128-0.959-3.087-1.544c-1.128,0.103-1.712-0.342-2.466-0.616    c-4.249-0.033-8.287,0.146-10.486,2.16c-0.781-0.602,0.174-2.071,0.307-2.775c0.864-0.368,1.775-0.695,2.773-0.927    c0.607-0.522,1.911-0.354,2.471-0.925c2.162-0.2,4.346-0.384,4.937-2.16c-0.31-1.645-1.882-2.021-4.011-1.85    c2.273-1.736,6.693-1.326,8.019-4.012c-0.19-1.351-1.774-1.309-3.39-1.23c-1.562,0.285-2.836,0.861-4.32,1.23    c0.919-1.756,3.168-2.181,4.936-3.084c0.324-1.352-1.043-1.012-0.924-2.16c0.745-0.485,1.362-1.104,1.848-1.851    c2.023-0.139,4.803,0.482,5.557-0.927c0.022-1.153-1.215-1.05-2.16-1.23c0.568-0.461,1.466-0.592,2.467-0.617    c0.57-0.457,1.469-0.592,2.469-0.617c1.237-0.714,2.93-0.977,3.701-2.16c-0.193-1.141-1.734-0.939-3.087-0.926    c2.225-1.988,5.53-2.9,8.021-4.625c1.854-0.306,3.552-0.77,4.935-1.543c0.79-0.014,0.378,0.23,0.311,0.617    c-2.896,2.451-5.532,5.162-8.33,7.711C2320.376,3046.498,2316.223,3053.859,2314.639,3063.789z M2340.859,3062.556    c-0.606-0.838-1.479-1.405-1.854-2.469c-1.771-0.491-3.131-1.392-4.935-1.851c-4.472-0.258-8.099,0.334-11.414,1.231    c-1.481,0.578-2.461,1.651-4.009,2.16c1.578-2.947,2.877-6.167,4.627-8.944c0.815-1.445,1.345-3.182,2.468-4.32    c0.52-1.74,1.946-2.572,2.467-4.316c2.185-1.928,4.242-3.984,6.17-6.168c2.849-1.368,3.795-4.639,6.787-5.861    C2340.469,3041.602,2341.043,3052.46,2340.859,3062.556c0.444,0.265,0.976,0.46,0.92,1.233    C2340.969,3063.88,2340.771,3063.36,2340.859,3062.556z M2367.384,3058.854c0.612,0.582,0.523,1.08,0.306,1.852    C2367.008,3060.667,2367.561,3059.396,2367.384,3058.854z M2351.346,3034.176c1.484,1.701,2.967,3.405,4.934,4.629    c2.733,5.594,5.105,11.551,6.479,18.506c-1.299-0.551-2.251-1.452-3.704-1.849c-2.466-0.104-4.179,0.551-6.476,0.615    c-1.831,0.843-4.156,1.188-5.862,2.159c-0.779-1.276-0.652-3.455-0.925-5.244c-0.438-1.517-0.178-3.729-0.616-5.243V3031.4    c0.088-0.496-0.292-0.529-0.31-0.926v-0.925c0.498-0.089,0.532,0.291,0.926,0.312    C2347.57,3031.373,2349.191,3033.036,2351.346,3034.176z"/></g></g><g id="coffee2"><g><path d="M2710.239,3046.413c0.956,1.213,1.551,3.426,3.025,4.535c0.042,0.03,0.246-0.003,0.302,0    c0.353,0.018,0.135,0.194,0.305,0.302c1.647,1.068,3.076,1.128,4.841,0c0.017-1.029-0.896-1.126-1.517-1.512    c-0.371-0.637-0.836-1.18-1.209-1.814c-1.09-0.928-1.436-2.6-1.812-4.233c0.484-0.423,0.32-1.492,0.904-1.815    c0.207-0.701,1.007-0.81,1.213-1.512c1.107-0.708,2-1.63,3.022-2.418c0.947-1.876,2.671-2.977,3.024-5.446    c1.183-1.643,1.492-4.155,1.816-6.653c-0.144-1.373-0.545-2.48-0.607-3.933c-2.309-3.641-4.069-7.823-8.771-9.073    c-0.124-0.517-0.392,0.063-0.907,0c-1.342-0.029-2.266,0.357-2.418,1.513c0.105,1.504,1.427,1.8,2.418,2.419    c0.843,0.772,1.812,1.416,2.724,2.119c1.767,2.566,3.539,5.131,3.022,9.979c-1.268,5.283-5.547,7.562-8.469,11.19    c-0.493,1.222-1.1,2.328-1.211,3.934C2709.873,3044.965,2710.473,3045.271,2710.239,3046.413z M2706.007,3040.967    c1.433-2.019,0.257-5.359-1.211-6.353c-1.024,0.083-2.452-0.233-3.022,0.304v0.906    C2703.253,3037.472,2703.338,3040.511,2706.007,3040.967z M2723.247,3043.993c-0.048,0.354,0.051,0.855-0.303,0.905    c-0.261,2.116-0.181,4.521,2.421,4.535c1.346-0.367,1.085-2.337,1.512-3.628c2.076-1.957,6.152-1.913,6.654-5.444    c-1.325-0.729-2.691-0.634-4.234-0.302c-0.562,0.119-0.906,0.528-1.211,0.604c-0.767,0.19-0.81,0.398-1.209,0.604    c-0.874,0.447-1.303,0.488-1.815,0.906C2724.309,3042.791,2723.938,3043.613,2723.247,3043.993z M2773.455,3075.75    c-0.354-2.57-1.924-3.925-3.023-5.747c-1.727-1.298-2.986-3.063-4.537-4.536c-1.864-0.658-3.363-1.679-5.748-1.813    c-3.238,0.187-6.299,0.555-8.168,2.116c-0.643-2.184-1.608-4.036-3.022-5.445c-5.035-0.855-10.44,0.414-16.03,0    c-5.144-0.501-10.361-0.932-15.425-1.51c-6.173-0.227-11.547,0.348-17.543,0.3c-5.158-0.726-12.662-1.718-17.542,0    c-0.021,0.889-0.691,1.125-1.21,1.512c-1.31,3.188-0.024,7.229-0.304,11.193c0.688,0.319,0.117,1.898,0.304,2.721    c0.255,0.754,0.394,1.622,0.303,2.723c0.595,0.414,0.163,1.853,0.606,2.42c0.021,0.982,0.152,1.861,0.603,2.42    c0.623,3.408,1.765,6.304,3.327,8.772c0.364,0.474,0.444,1.156,0.604,1.511c0.049,0.104,0.532,0.182,0.607,0.303    c0.088,0.148-0.072,0.446,0,0.604c0.047,0.106,0.531,0.176,0.604,0.304c0.357,0.651,0.324,1.22,0.605,1.513    c0.242,0.252,0.357,0.648,0.604,0.906c0.657,0.686,1.275,1.543,1.512,2.42c0.723,0.487,1.335,1.086,2.117,1.51    c0.53,0.561,2.262,0.918,1.517,1.817c-3.047,0.384-6.035,0.823-9.68,0.604c-1.796-0.321-3.57-0.663-5.446-0.907    c-1.487-0.932-3.741-1.098-5.143-2.114c-2.228-0.37-4.593-0.253-5.141,1.812c-0.018,0.186-0.044,0.358-0.305,0.302    c0.033,2.69,1.29,4.156,3.027,5.144c1.276,1.444,3.17,2.274,5.141,3.024c1.713,1.011,3.785,1.657,5.747,2.42    c1.136,0.275,2.137,0.685,3.325,0.906c0.773,0.637,2.184,0.644,3.024,1.211c3.093,0.133,5.886,0.569,8.771,0.906    c9.205-0.071,18.979,0.431,26.618-1.21c7.711-0.157,15.174,0.239,22.382-0.907c0.678-0.529,1.698-0.719,2.418-1.209    c0.499-0.715,1.556-0.861,2.118-1.514c2.266-0.252,3.211-1.828,5.142-2.42c1.545-2.184,4.342-3.115,3.932-7.257    c-0.819-0.392-1.073-1.347-2.42-1.21c-1.327-0.019-2.499,0.121-3.327,0.602c-2.248,0.373-4.645,0.6-6.959,0.91h-11.793    c0.389-0.926,1.729-0.889,2.118-1.814c0.89-0.422,1.146-1.479,2.42-1.514c1.513-0.102,1.67,1.153,3.327,0.908    c2.284-1.143,3.213-3.641,5.744-4.536c0.74-0.269,1.312-0.706,2.421-0.605c0.383-0.728,2.384,0.167,2.721-0.604    c2.444,0.226,3.571-0.869,5.748-0.908c3.321-1.015,6.642-2.026,9.071-3.932c0.654-0.759,0.957-1.869,1.816-2.419    c0.35-1.667,1.166-2.87,1.21-4.841C2772.939,3079.268,2773.695,3078.006,2773.455,3075.75z M2697.84,3062.441h0.605    C2698.507,3063.292,2696.182,3062.357,2697.84,3062.441z M2686.044,3073.936c-0.155-0.157,0.22-0.388,0.303-0.303    C2686.504,3073.788,2686.129,3074.018,2686.044,3073.936z M2689.977,3082.705c-0.157-0.156,0.22-0.384,0.303-0.301    C2690.434,3082.562,2690.061,3082.79,2689.977,3082.705z M2749.561,3103.878c0.49,0.085,0.521-0.286,0.906-0.304h2.118    c0.571,0.137,1.822-0.41,1.512,0.604c-0.347,0.108-0.767,0.533-0.303,0.605c-0.221,0.28-0.55,0.457-0.908,0.604    c-0.339,0.567-1.171,0.645-1.51,1.21c-1.185-0.176-1.758,0.26-2.421,0.605c-0.107,0.8-1.539,0.272-1.816,0.906    c-2.483,0.34-5.389,0.256-7.559,0.907c-10.778,0.312-21.803,0.377-32.363,0.906c-1.111,0.201-2.302,0.322-3.328,0.606h-9.375    c-1.431-0.08-2.33-0.694-3.935-0.606c-1.387-0.121-2.737-0.281-2.721-1.813c-0.118-2.135,2.715-1.316,4.235-1.812    c1.473-0.545,3.443-0.588,5.142-0.909c2.16,0.159,3.916,0.722,6.354,0.604c1.494-0.016,2.666-0.355,3.93-0.604    c8.32-0.032,16.759-1.269,25.102-0.302C2738.128,3103.938,2744.22,3104.744,2749.561,3103.878z M2737.459,3094.805    c-3.059,2.385-8.098,2.787-12.094,4.234c-2.555-0.232-4.168,0.468-6.653,0.303c0.308-1.404,1.382-2.045,1.206-3.934    c-2.893-0.174-3.197,2.246-4.232,3.934c-0.854-0.254-1.865-0.354-2.726-0.607c0.367-2.254,1.864-3.377,2.422-5.442    c-1.012-1.229-2.729,0.218-3.325,1.211c-0.977,0.837-1.396,2.231-2.42,3.022c-0.93-0.078-1.361-0.654-2.117-0.906    c1.253-2.273,2.572-4.482,3.63-6.955c-1.988-0.992-2.931,1.44-4.234,2.114c-0.88,1.438-2.062,2.576-2.721,4.235    c-1.361-0.054-2.195-0.628-3.026-1.209c0.145-2.979,1.998-4.254,2.118-7.261c-2.368,0.354-2.974,2.471-4.232,3.934    c-0.65-0.438-2.166-1.011-1.212-2.118c0.162-1.048,0.812-1.61,0.906-2.721c0.661-1.763,1.617-3.221,1.814-5.443    c-2.341-0.327-2.396,1.632-3.628,2.418c-0.36,1.655-1.456,2.58-1.813,4.234c-1.024-0.688-1.843-1.586-2.423-2.723    c0.494-1.723,1.054-3.383,1.517-5.143c0.308-1.412,1.897-3.357,0.603-4.535c-1.505,0.308-1.62,2.007-2.721,2.723    c-0.137,0.771-0.427,1.389-0.909,1.812c-0.103,0.703-0.193,1.416-1.209,1.211c-1.292,0.083-0.021-1.326,0-1.814    c0.004-0.713-0.521-0.892-0.303-1.814c0.532-3.021,2.951-5.688,2.118-9.074c-1.661-0.047-1.704,1.525-2.418,2.42    c-0.828,0.787-0.862,2.366-2.118,2.724c-0.482-2.277-1.537-5.474-1.212-7.562c0.14-0.646-0.435-0.575-0.906-0.604    c0.068-1.545,1.97-1.259,2.722-2.119c-0.189-0.718-1.859,0.048-2.118-0.604c0.041-0.968,1.35-0.666,1.815-1.209    c3.305,0.527,6.846,0.818,9.98,1.512c0.923,0.218,1.103-0.31,1.814-0.303h3.327c0.714-0.25,1.392,0.427,0.3,0.303h-1.509    c0.131,0.677,1.488,0.122,2.118,0.302h2.418c14.041,0.578,27.17,2.065,42.041,1.815    C2745.758,3076.283,2743.541,3087.475,2737.459,3094.805z M2748.655,3083.312c0.86-2.871,1.491-5.967,2.418-8.772    c1.975-1.866,5.784-0.925,9.073-0.906c0.273,0.532,0.678,0.937,1.209,1.209c0.166,0.539,0.153,1.257,0.604,1.513    c-0.351,1.666-1.205,2.827-2.116,3.932C2757.141,3082.321,2752.316,3082.236,2748.655,3083.312z M2767.707,3078.17    c-0.211,1.299-0.388,2.636-0.907,3.629c-0.042,1.367-1.241,1.582-1.207,3.023c-2.327,0.804-4.541,1.714-7.564,1.815    c-0.955,0.654-2.902,0.32-3.931,0.905c-0.806,0.003-1.729-0.112-2.118,0.304c-0.532,0.174-1.774-0.364-1.813,0.303    c-1.236,0.144-0.044-0.813,0.303-0.907c0.265-0.444,0.452-0.959,1.211-0.907c0.795-0.716,2.026-0.995,3.326-1.21    c2.162-0.76,4.891-0.955,6.652-2.116c2.261-1.472,3.324-4.136,3.023-8.167c-0.16-0.243-0.313-0.49-0.303-0.906    c-0.544-1.371-1.719-2.111-2.722-3.024c-2.815-0.761-6.535-0.741-9.377,0c0.503-0.607,0.813-1.406,1.815-1.513    c0.132-0.373,0.388-0.623,0.908-0.604c0.672,0.166,0.43-0.579,0.907-0.604c0.075-0.327,0.603-0.205,0.604-0.604h4.838    c1.481,0.332,2.49,1.137,3.934,1.51c0.422,1.193,1.466,1.763,2.118,2.726C2767.168,3074.271,2767.841,3075.819,2767.707,3078.17z"/></g></g><g id="twitter"><g><path d="M111.335,39.593c-0.915-1.481-3.675-1.12-5.692-1.5h-4.494c0.572-1.426,1.384-2.613,2.099-3.896    c0.224-1.771,1.026-2.966,0.899-5.093c0.523-0.673,0.711-1.685,1.197-2.398c0.418-0.583,0.98-1.928,0.299-2.695    c-0.205-0.893-1.19-1.005-2.396-0.898c-0.354,0.146-0.681,0.317-0.896,0.599c-1.812,1.75-3.148,4.099-5.098,5.692    c-0.037,0.033-0.249-0.002-0.3,0c-0.349,0.019-0.132,0.188-0.302,0.3c-0.592,0.394-1.041,0.615-1.493,0.9    c-1.15,0.712-2.212,1.799-3.601,2.097c-2.14-0.855-4.678-1.317-7.49-1.497c-4.678,0.412-9.312,0.871-12.284,2.994    c-3.683,1.416-5.972,4.214-8.69,6.594c-0.2,1.296-1.383,1.609-1.497,2.996c-0.019,0.183-0.047,0.354-0.299,0.3    c0.174,0.973-0.205,1.393-0.299,2.097c-0.002,0.537,0.807,1.743,0,2.099c-3.323-0.482-6.006-2.546-8.691-3.897    c-2.901-1.457-5.937-2.439-8.388-4.492c-2.895-1.303-5.094-3.301-7.19-5.394c-0.841-1.26-2.193-2.004-2.7-3.598    c-1.532-0.665-0.708-3.688-2.995-3.595c-1.276-0.174-1.393,0.807-1.797,1.498c-0.285,0.915-1.46,0.939-1.501,2.097    c-0.016,0.185-0.043,0.356-0.298,0.302c-0.688,4.404-2.133,8.055-2.098,13.182c0.521,1.678,1.413,2.986,2.396,4.196    c-1.69,0.205-2.894,0.898-3.596,2.099c-0.241,4.341,1.528,6.663,2.999,9.286c0.543,1.556,1.422,2.771,2.397,3.896    c0.07,0.928,0.833,1.165,1.196,1.799c0.075,0.427,0.495,0.505,0.602,0.899c-0.162,0.431,1.167,0.73,0.297,0.896    c-1.67,0.527-4.109,0.285-5.093,1.5c-0.442,1.128-0.442,3.368,0,4.494c0.138,0.96,1.141,1.057,1.198,2.097    c2.019,1.683,4.374,3.021,6.595,4.497c2.324,0.67,4.899,1.092,7.49,1.497c-0.414,1.386-1.367,2.228-2.397,2.995    c-3.154,1.542-7.475,1.916-11.089,2.996c-2.244,0.152-3.863,0.93-6.29,0.9c-1.344,0.514-3.452,0.303-4.495,0.898    c-0.493,0.277-0.411,0.389-0.9,0.896c-0.542,1.662,0.449,2.99,1.796,3.597c-0.02,1.021,0.883,1.118,1.501,1.499    c0.358,0.74,1.025,1.172,1.797,1.498c2.203,1.891,5.126,3.066,7.792,4.496c3.353,0.74,6.665,1.523,10.188,2.097    c3.622,0.472,7.687,0.503,11.385,0.897h3.895c2.066,0.533,4.977,0.219,7.49,0.301c0.386-0.412,1.304-0.297,2.099-0.301    c2.111-1.086,4.836-1.555,6.594-2.994c2.321-0.975,3.998-2.596,6.293-3.596c3.502-3.093,7.832-5.354,10.186-9.591    c0.829-0.768,1.419-1.776,1.801-2.995c1.067-0.632,1.557-1.838,2.395-2.697c1.635-1.66,2.856-3.736,4.195-5.693    c1.291-2.006,2.33-4.264,3.598-6.291c-0.039-1.639,1.234-1.96,1.197-3.598c0.782-0.914,0.715-2.678,1.502-3.595    c-0.137-1.03,0.117-1.678,0.297-2.398c0.188-5.181-0.191-9.795-1.201-13.78c2.376-0.626,4.775-1.221,6.596-2.398    C110.171,43.939,112.082,42.335,111.335,39.593z M97.555,56.072c-0.621,3.476-2.49,5.701-4.197,8.091    c0.236,1.532-0.42,2.175-0.297,3.596c-0.641,1.261-1.16,2.636-1.502,4.193c-0.82,1.077-1.342,2.45-2.095,3.596    c-1.483,2.216-3.146,4.248-4.795,6.294c-1.528,2.266-3.688,3.901-5.396,5.991c-1.699,1.994-3.811,3.579-5.691,5.394    c-1.913,0.686-3.594,1.605-5.094,2.697c-0.938,0.363-1.87,0.727-2.694,1.199c-0.716,0.587-2.02,0.581-2.701,1.197    c-4.395,0.598-9.302,0.687-14.378,0.6c-4.168-0.426-8.552-0.641-12.288-1.499c-3.731-0.765-6.112-2.878-9.289-4.194    c0.619-0.977,2.566-0.625,3.896-0.897c0.125-0.672,1.592-0.009,1.795-0.601c1.041,0.24,1.153-0.446,2.1-0.299    c2.279-0.813,4.976-1.219,6.893-2.397c1.14-0.556,1.641-1.753,2.696-2.396c0.134-0.767,0.418-1.38,0.896-1.799    c0.193-1.109,0.814-1.784,0.601-3.296c0.45-0.849,1.21-1.385,1.198-2.698c-0.3-0.594-0.519-1.279-1.198-1.499    c-0.106-0.792-1.526-0.271-1.797-0.896c-1.031,0.13-1.682-0.119-2.397-0.303c-0.622-0.176-1.97,0.371-2.098-0.299    c-3.403-0.093-5.255-1.738-7.491-2.994c1.739-1.056,4.172-1.422,5.391-2.998c2.088-0.31,4.277-0.521,4.497-2.696    c0-2.895-3.118-2.673-5.391-3.297c-3.128-2.666-4.831-6.757-7.193-10.187c0.963-0.636,2.283-0.913,2.994-1.797    c1.836,0.235,2.185-1.014,2.698-2.099c0.076-1.974-1.345-2.449-2.398-3.297c-1.045-0.851-1.92-1.87-2.695-2.994    c-0.012-3.309-0.087-6.68,0.3-9.59c0.254-0.056,0.283,0.116,0.298,0.299c0.915,1.785,2.261,3.133,3.297,4.794    c2.15,1.446,3.742,3.45,6.292,4.497c1.829,1.668,4.482,2.511,6.295,4.194c2.429,1.065,4.685,2.304,6.889,3.595    c2.708,0.789,4.27,2.722,8.091,2.397c0.804-0.392,1.594-0.804,2.397-1.2c1.043-1.842-0.235-4.361,0.598-6.591    c1.031-2.663,3.225-4.17,5.094-5.991c1.172-0.626,2.242-1.356,3.297-2.1c1.404-0.394,2.727-0.871,3.896-1.497    c1.521-0.078,2.884-0.313,4.197-0.599h5.094c0.985,0.211,1.916,0.482,2.994,0.599c0.844,0.554,1.535,1.264,2.694,1.497    c3.19,2.805,5.133,6.858,5.697,12.288C97.055,52.04,97.764,53.617,97.555,56.072z M98.75,33.299    c-0.521,1.377-0.934,2.859-2.398,3.297c-0.068-0.427-0.49-0.505-0.596-0.898c-0.048-0.846,0.848-0.751,1.197-1.198    C97.613,34.158,97.945,33.496,98.75,33.299C98.723,32.938,99.188,33.114,98.75,33.299z M76.578,45.584    c0.656,0.544,1.146,1.252,2.098,1.5c0.406,0.893,1.271,1.323,2.398,1.497c0.189-0.608,1.398-0.196,1.496-0.898    c0.703-0.094,0.672-0.927,1.199-1.2c-0.074-2.223-0.521-4.071-1.498-5.393C79.206,39.381,75.494,41.25,76.578,45.584z"/></g></g></svg>